# Wavefront OBJ file automatically generated by Tiled2Unity

# Vertices (Count = 183)
v 0 -0.48 0
v -0.32 -0.48 0
v -0.32 -0.16 0
v 0 -0.16 0
v -0.64 -0.48 0
v -0.64 -0.16 0
v -0.96 -0.48 0
v -0.96 -0.16 0
v -0.8 -0.48 0
v -1.12 -0.48 0
v -1.12 -0.16 0
v -0.8 -0.16 0
v -1.28 -0.48 0
v -1.28 -0.16 0
v -1.44 -0.48 0
v -1.44 -0.16 0
v -1.6 -0.48 0
v -1.6 -0.16 0
v -1.76 -0.48 0
v -1.76 -0.16 0
v -1.92 -0.48 0
v -1.92 -0.16 0
v -2.08 -0.48 0
v -2.08 -0.16 0
v -2.24 -0.48 0
v -2.24 -0.16 0
v -2.4 -0.48 0
v -2.4 -0.16 0
v -2.56 -0.48 0
v -2.56 -0.16 0
v -2.88 -0.48 0
v -2.88 -0.16 0
v -3.2 -0.48 0
v -3.2 -0.16 0
v 0 -0.8 0
v -0.32 -0.8 0
v -0.64 -0.8 0
v -0.96 -0.8 0
v -0.8 -0.8 0
v -1.12 -0.8 0
v -1.28 -0.8 0
v -1.44 -0.8 0
v -1.6 -0.8 0
v -1.76 -0.8 0
v -1.92 -0.8 0
v -2.08 -0.8 0
v -2.24 -0.8 0
v -2.4 -0.8 0
v -2.56 -0.8 0
v -2.88 -0.8 0
v -3.2 -0.8 0
v 0 -0.96 0
v -0.32 -0.96 0
v -0.32 -0.64 0
v 0 -0.64 0
v -0.64 -0.96 0
v -0.96 -0.96 0
v -0.96 -0.64 0
v -0.64 -0.64 0
v -0.8 -0.96 0
v -1.12 -0.96 0
v -1.12 -0.64 0
v -0.8 -0.64 0
v -1.28 -0.96 0
v -1.28 -0.64 0
v -1.44 -0.96 0
v -1.44 -0.64 0
v -1.6 -0.96 0
v -1.6 -0.64 0
v -1.76 -0.96 0
v -1.76 -0.64 0
v -1.92 -0.96 0
v -1.92 -0.64 0
v -2.08 -0.96 0
v -2.08 -0.64 0
v -2.24 -0.96 0
v -2.24 -0.64 0
v -2.4 -0.96 0
v -2.4 -0.64 0
v -2.72 -0.96 0
v -2.72 -0.64 0
v 0 -1.12 0
v -0.32 -1.12 0
v -0.64 -1.12 0
v -0.96 -1.12 0
v -0.8 -1.12 0
v -1.12 -1.12 0
v -1.28 -1.12 0
v -1.44 -1.12 0
v -1.6 -1.12 0
v -1.76 -1.12 0
v -1.92 -1.12 0
v -2.08 -1.12 0
v -2.24 -1.12 0
v -2.4 -1.12 0
v -2.56 -1.12 0
v -2.72 -1.12 0
v -2.72 -0.8 0
v -2.88 -1.12 0
v -3.2 -1.12 0
v 0 -1.44 0
v -0.32 -1.44 0
v -0.64 -1.44 0
v -0.96 -1.44 0
v -0.8 -1.44 0
v -1.12 -1.44 0
v -1.28 -1.44 0
v -1.44 -1.44 0
v -1.6 -1.44 0
v -1.76 -1.44 0
v -1.92 -1.44 0
v -2.08 -1.44 0
v -2.24 -1.44 0
v -2.4 -1.44 0
v -2.56 -1.44 0
v -2.88 -1.44 0
v -3.2 -1.44 0
v -0.16 -0.16 0
v -0.16 0 0
v 0 0 0
v -0.32 0 0
v -0.48 -0.16 0
v -0.48 0 0
v -0.64 0 0
v -0.8 0 0
v -0.96 0 0
v -1.12 0 0
v -1.28 0 0
v -1.44 0 0
v -1.6 0 0
v -1.76 0 0
v -1.92 0 0
v -2.08 0 0
v -2.24 0 0
v -2.4 0 0
v -2.56 0 0
v -2.72 -0.16 0
v -2.72 0 0
v -2.88 0 0
v -3.04 -0.16 0
v -3.04 0 0
v -3.2 0 0
v 0 -0.32 0
v -0.16 -0.32 0
v -0.32 -0.32 0
v -2.88 -0.32 0
v -3.04 -0.32 0
v -3.2 -0.32 0
v -0.16 -0.48 0
v -3.04 -0.48 0
v 0 -1.28 0
v -0.16 -1.28 0
v -0.16 -1.12 0
v -0.32 -1.28 0
v -2.88 -1.28 0
v -3.04 -1.28 0
v -3.04 -1.12 0
v -3.2 -1.28 0
v -0.16 -1.44 0
v -3.04 -1.44 0
v 0 -1.6 0
v -0.16 -1.6 0
v -0.32 -1.6 0
v -0.48 -1.6 0
v -0.48 -1.44 0
v -0.64 -1.6 0
v -0.8 -1.6 0
v -0.96 -1.6 0
v -1.12 -1.6 0
v -1.28 -1.6 0
v -1.44 -1.6 0
v -1.6 -1.6 0
v -1.76 -1.6 0
v -1.92 -1.6 0
v -2.08 -1.6 0
v -2.24 -1.6 0
v -2.4 -1.6 0
v -2.56 -1.6 0
v -2.72 -1.6 0
v -2.72 -1.44 0
v -2.88 -1.6 0
v -3.04 -1.6 0
v -3.2 -1.6 0

# Texture cooridinates (Count = 59)
vt 0.2001221 0.7001221
vt 0.2998779 0.7001221
vt 0.2998779 0.7998779
vt 0.2001221 0.7998779
vt 0.1001221 0.900122
vt 0.1998779 0.900122
vt 0.1998779 0.9998779
vt 0.1001221 0.9998779
vt 0.2001221 0.8001221
vt 0.2998779 0.8001221
vt 0.2998779 0.8998779
vt 0.2001221 0.8998779
vt 0.3001221 0.8001221
vt 0.3998779 0.8001221
vt 0.3998779 0.8998779
vt 0.3001221 0.8998779
vt 0.1001221 0.8001221
vt 0.1998779 0.8001221
vt 0.1998779 0.8998779
vt 0.1001221 0.8998779
vt 0.4001221 0.5001221
vt 0.4998779 0.5001221
vt 0.4998779 0.599878
vt 0.4001221 0.599878
vt 0.0001220703 0.5001221
vt 0.09987793 0.5001221
vt 0.09987793 0.599878
vt 0.0001220703 0.599878
vt 0.1001221 0.7001221
vt 0.1998779 0.7001221
vt 0.1998779 0.7998779
vt 0.1001221 0.7998779
vt 0.1001221 0.6001221
vt 0.1998779 0.6001221
vt 0.1998779 0.6998779
vt 0.1001221 0.6998779
vt 0.4001221 0.900122
vt 0.4998779 0.900122
vt 0.4998779 0.9998779
vt 0.4001221 0.9998779
vt 0.0001220703 0.900122
vt 0.09987793 0.900122
vt 0.09987793 0.9998779
vt 0.0001220703 0.9998779
vt 0.2001221 0.6001221
vt 0.2998779 0.6001221
vt 0.2998779 0.6998779
vt 0.2001221 0.6998779
vt 0.1001221 0.5001221
vt 0.1998779 0.5001221
vt 0.1998779 0.599878
vt 0.1001221 0.599878
vt 0.3001221 0.6001221
vt 0.3998779 0.6001221
vt 0.3998779 0.6998779
vt 0.3001221 0.6998779
vt 0.0001220703 0.3601221
vt 0.6398779 0.3601221
vt 0.6398779 0.9998779

# Normal
vn 0 0 -1

# Groups (Count = 2)

g mesh_0001
f 1/1/1 2/2/1 3/3/1 4/4/1
f 2/5/1 5/6/1 6/7/1 3/8/1
f 5/9/1 7/10/1 8/11/1 6/12/1
f 9/9/1 10/10/1 11/11/1 12/12/1
f 7/9/1 13/10/1 14/11/1 8/12/1
f 10/9/1 15/10/1 16/11/1 11/12/1
f 13/9/1 17/10/1 18/11/1 14/12/1
f 15/9/1 19/10/1 20/11/1 16/12/1
f 17/9/1 21/10/1 22/11/1 18/12/1
f 19/9/1 23/10/1 24/11/1 20/12/1
f 21/9/1 25/10/1 26/11/1 22/12/1
f 23/9/1 27/10/1 28/11/1 24/12/1
f 25/9/1 29/10/1 30/11/1 26/12/1
f 29/13/1 31/14/1 32/15/1 30/16/1
f 31/1/1 33/2/1 34/3/1 32/4/1
f 35/17/1 36/18/1 2/19/1 1/20/1
f 36/21/1 37/22/1 5/23/1 2/24/1
f 37/1/1 38/2/1 7/3/1 5/4/1
f 39/1/1 40/2/1 10/3/1 9/4/1
f 38/1/1 41/2/1 13/3/1 7/4/1
f 40/1/1 42/2/1 15/3/1 10/4/1
f 41/1/1 43/2/1 17/3/1 13/4/1
f 42/1/1 44/2/1 19/3/1 15/4/1
f 43/1/1 45/2/1 21/3/1 17/4/1
f 44/1/1 46/2/1 23/3/1 19/4/1
f 45/1/1 47/2/1 25/3/1 21/4/1
f 46/1/1 48/2/1 27/3/1 23/4/1
f 47/1/1 49/2/1 29/3/1 25/4/1
f 49/25/1 50/26/1 31/27/1 29/28/1
f 50/9/1 51/10/1 33/11/1 31/12/1
f 52/29/1 53/30/1 54/31/1 55/32/1
f 56/1/1 57/2/1 58/3/1 59/4/1
f 60/1/1 61/2/1 62/3/1 63/4/1
f 57/1/1 64/2/1 65/3/1 58/4/1
f 61/1/1 66/2/1 67/3/1 62/4/1
f 64/1/1 68/2/1 69/3/1 65/4/1
f 66/1/1 70/2/1 71/3/1 67/4/1
f 68/1/1 72/2/1 73/3/1 69/4/1
f 70/1/1 74/2/1 75/3/1 71/4/1
f 72/1/1 76/2/1 77/3/1 73/4/1
f 74/1/1 78/2/1 79/3/1 75/4/1
f 78/1/1 80/2/1 81/3/1 79/4/1
f 82/33/1 83/34/1 36/35/1 35/36/1
f 83/37/1 84/38/1 37/39/1 36/40/1
f 84/1/1 85/2/1 38/3/1 37/4/1
f 86/1/1 87/2/1 40/3/1 39/4/1
f 85/1/1 88/2/1 41/3/1 38/4/1
f 87/1/1 89/2/1 42/3/1 40/4/1
f 88/1/1 90/2/1 43/3/1 41/4/1
f 89/1/1 91/2/1 44/3/1 42/4/1
f 90/1/1 92/2/1 45/3/1 43/4/1
f 91/1/1 93/2/1 46/3/1 44/4/1
f 92/1/1 94/2/1 47/3/1 45/4/1
f 93/1/1 95/2/1 48/3/1 46/4/1
f 94/1/1 96/2/1 49/3/1 47/4/1
f 95/1/1 97/2/1 98/3/1 48/4/1
f 96/41/1 99/42/1 50/43/1 49/44/1
f 99/45/1 100/46/1 51/47/1 50/48/1
f 101/1/1 102/2/1 83/3/1 82/4/1
f 102/49/1 103/50/1 84/51/1 83/52/1
f 103/45/1 104/46/1 85/47/1 84/48/1
f 105/45/1 106/46/1 87/47/1 86/48/1
f 104/45/1 107/46/1 88/47/1 85/48/1
f 106/45/1 108/46/1 89/47/1 87/48/1
f 107/45/1 109/46/1 90/47/1 88/48/1
f 108/45/1 110/46/1 91/47/1 89/48/1
f 109/45/1 111/46/1 92/47/1 90/48/1
f 110/45/1 112/46/1 93/47/1 91/48/1
f 111/45/1 113/46/1 94/47/1 92/48/1
f 112/45/1 114/46/1 95/47/1 93/48/1
f 113/45/1 115/46/1 96/47/1 94/48/1
f 115/53/1 116/54/1 99/55/1 96/56/1
f 116/1/1 117/2/1 100/3/1 99/4/1

g mesh_0002
f 4/57/1 118/58/1 119/59/1 120/44/1
f 118/57/1 3/58/1 121/59/1 119/44/1
f 3/57/1 122/58/1 123/59/1 121/44/1
f 122/57/1 6/58/1 124/59/1 123/44/1
f 6/57/1 12/58/1 125/59/1 124/44/1
f 12/57/1 8/58/1 126/59/1 125/44/1
f 8/57/1 11/58/1 127/59/1 126/44/1
f 11/57/1 14/58/1 128/59/1 127/44/1
f 14/57/1 16/58/1 129/59/1 128/44/1
f 16/57/1 18/58/1 130/59/1 129/44/1
f 18/57/1 20/58/1 131/59/1 130/44/1
f 20/57/1 22/58/1 132/59/1 131/44/1
f 22/57/1 24/58/1 133/59/1 132/44/1
f 24/57/1 26/58/1 134/59/1 133/44/1
f 26/57/1 28/58/1 135/59/1 134/44/1
f 28/57/1 30/58/1 136/59/1 135/44/1
f 30/57/1 137/58/1 138/59/1 136/44/1
f 137/57/1 32/58/1 139/59/1 138/44/1
f 32/57/1 140/58/1 141/59/1 139/44/1
f 140/57/1 34/58/1 142/59/1 141/44/1
f 143/57/1 144/58/1 118/59/1 4/44/1
f 144/57/1 145/58/1 3/59/1 118/44/1
f 146/57/1 147/58/1 140/59/1 32/44/1
f 147/57/1 148/58/1 34/59/1 140/44/1
f 1/57/1 149/58/1 144/59/1 143/44/1
f 149/57/1 2/58/1 145/59/1 144/44/1
f 31/57/1 150/58/1 147/59/1 146/44/1
f 150/57/1 33/58/1 148/59/1 147/44/1
f 151/57/1 152/58/1 153/59/1 82/44/1
f 152/57/1 154/58/1 83/59/1 153/44/1
f 155/57/1 156/58/1 157/59/1 99/44/1
f 156/57/1 158/58/1 100/59/1 157/44/1
f 101/57/1 159/58/1 152/59/1 151/44/1
f 159/57/1 102/58/1 154/59/1 152/44/1
f 116/57/1 160/58/1 156/59/1 155/44/1
f 160/57/1 117/58/1 158/59/1 156/44/1
f 161/57/1 162/58/1 159/59/1 101/44/1
f 162/57/1 163/58/1 102/59/1 159/44/1
f 163/57/1 164/58/1 165/59/1 102/44/1
f 164/57/1 166/58/1 103/59/1 165/44/1
f 166/57/1 167/58/1 105/59/1 103/44/1
f 167/57/1 168/58/1 104/59/1 105/44/1
f 168/57/1 169/58/1 106/59/1 104/44/1
f 169/57/1 170/58/1 107/59/1 106/44/1
f 170/57/1 171/58/1 108/59/1 107/44/1
f 171/57/1 172/58/1 109/59/1 108/44/1
f 172/57/1 173/58/1 110/59/1 109/44/1
f 173/57/1 174/58/1 111/59/1 110/44/1
f 174/57/1 175/58/1 112/59/1 111/44/1
f 175/57/1 176/58/1 113/59/1 112/44/1
f 176/57/1 177/58/1 114/59/1 113/44/1
f 177/57/1 178/58/1 115/59/1 114/44/1
f 178/57/1 179/58/1 180/59/1 115/44/1
f 179/57/1 181/58/1 116/59/1 180/44/1
f 181/57/1 182/58/1 160/59/1 116/44/1
f 182/57/1 183/58/1 117/59/1 160/44/1

